<mxfile host="app.diagrams.net" modified="2023-07-16T15:02:34.834Z" agent="Mozilla/5.0 (Windows NT 6.1; WOW64) AppleWebKit/537.36 (KHTML, like Gecko) Chrome/105.0.0.0 Safari/537.36" version="21.6.2" etag="BKifoIGgmMQgWrJlqGyD" type="github">
  <diagram name="Page-1" id="DigjpKDBXrDzWGz_JIb7">
    <mxGraphModel>
      <root>
        <mxCell id="0" />
        <mxCell id="1" parent="0" />
      </root>
    </mxGraphModel>
  </diagram>
</mxfile>
